# xmcd CD database file
#
# Track frame offsets:
#	150
#	14850
#	29222
#	44575
#	57653
#	67466
#	107561
#	118721
#	133177
#	148547
#	161161
#	171484
#	185907
#	194273
#
# Disc length: 2841 seconds
#
# Revision: 2
# Processed by: cddbd v1.5.2PL0 Copyright (c) Steve Scherf et al.
# Submitted via: CDex 1.70beta2
#
DISCID=f10b170e
DTITLE=Lionel Hampton - Flying Home CD10
DYEAR=2008
DGENRE=Jazz
TTITLE0=1 Flying Home (B. Goodman/L. Hampton/S. Robin) Benny Goodman Sextett
TTITLE1=2 Flying Home No. 1 (B. Goodman/L. Hampton/S. Robin)  Lionel Hampton Big Band
TTITLE2=3 Flying Home No. 2 (B. Goodman/L. Hampton/S. Robin) Lionel Hampton Big Band
TTITLE3=4 Flying Home (B. Goodman/L. Hampton/S. Robin)  Charlie Barnett And His Orchestra
TTITLE4=5 Flying Home (B. Goodman/L. Hampton/S. Robin)  Les Brown
TTITLE5=6 Flyin’ On A V - Disc - Part 1&2 (Flying Home) (B. Goodman/L. Hampton/S. Robin)  Armstrong/Eldridge/  Teagarden/Hawkins/Vic Schoen And His Orchestra  with Ella Fitzgerald
TTITLE6=7 Flying Home (B. Goodman/L. Hampton/S. Robin)
TTITLE7=8 Flying Home No. 1 (B. Goodman/L. Hampton/S. Robin)  Hampton With Illinois Jacquet
TTITLE8=9 Flying Home No. 2 (B. Goodman/L. Hampton/S. Robin)  Hampton With Cobb
TTITLE9=10 Flying Home – Part 1 (B. Goodman/L. Hampton/S. Robin)   Illinois Jacquet And His All Stars
TTITLE10=11 Flying Home – Part 2 (B. Goodman/L. Hampton/S. Robin)  Illinois Jacquet And His All Stars
TTITLE11=12 Flying Home (B. Goodman/L. Hampton/S. Robin)   Glenn Miller Big Band
TTITLE12=13 Flying Home (B. Goodman/L. Hampton/S. Robin)  Oscar Peterson Duo
TTITLE13=14 Flying Home (B. Goodman/L. Hampton/S. Robin)   Art Tatum Trio
EXTD=YEAR: 2008
EXTT0=
EXTT1=
EXTT2=
EXTT3=
EXTT4=
EXTT5=
EXTT6=
EXTT7=
EXTT8=
EXTT9=
EXTT10=
EXTT11=
EXTT12=
EXTT13=
PLAYORDER=
